<svg xmlns="http://www.w3.org/2000/svg" xmlns:xlink="http://www.w3.org/1999/xlink" version="1.1" x="0px" y="0px" viewBox="0 0 100 125" enable-background="new 0 0 100 100" xml:space="preserve"><path d="M20.69,70.388c-3.225,0-6.665-1.797-10.825-5.655c-0.404-0.374-1.009-0.431-1.476-0.137  c-0.466,0.293-0.676,0.864-0.513,1.39c3.057,9.827,9.495,16.69,15.655,16.691c0,0,0.001,0,0.001,0c0.656,0,1.306-0.079,1.933-0.235  c3.759-0.935,5.775-3.011,7.301-5.35c0.227,6.662,7.301,11.021,12.017,13.918c1.567,0.963,3.703,2.274,4.001,2.859  C48.831,94.501,49.357,95,50,95s1.17-0.499,1.213-1.131c0.3-0.585,2.435-1.896,4.002-2.859c4.717-2.896,11.79-7.256,12.018-13.919  c1.524,2.34,3.541,4.416,7.3,5.351c0.627,0.156,1.277,0.235,1.935,0.235c6.164,0,12.603-6.863,15.655-16.691  c0.163-0.526-0.047-1.097-0.514-1.39c-0.465-0.293-1.07-0.236-1.475,0.137c-4.16,3.858-7.6,5.655-10.825,5.655  c-2.838,0-5.309-1.359-8.169-2.933c-1.365-0.751-2.808-1.537-4.378-2.219c10.334-1.729,17.183-5.073,20.789-10.135  c5.261-7.387,2.526-17.033,0.33-24.783c-2.162-7.624-3.305-12.393,0.274-14.26c0.437-0.228,0.693-0.698,0.648-1.189  s-0.383-0.906-0.854-1.052c-0.277-0.082-6.723-1.963-14.846,3.044c-0.622-3.004-0.368-4.918,1.408-5.594  c0.507-0.193,0.825-0.698,0.779-1.239c-0.046-0.542-0.445-0.986-0.978-1.091c-0.349-0.066-8.464-1.54-17.346,5.397  c-2.081-3.52-4.173-6.578-6.021-8.88C50.717,5.167,50.369,5,50,5s-0.717,0.167-0.948,0.455c-1.848,2.301-3.939,5.359-6.02,8.879  C34.15,7.401,26.037,8.872,25.69,8.939c-0.533,0.104-0.932,0.549-0.978,1.091c-0.046,0.541,0.272,1.046,0.779,1.239  c1.773,0.674,2.026,2.589,1.403,5.595c-8.12-5.006-14.569-3.129-14.844-3.047c-0.471,0.146-0.809,0.561-0.854,1.052  c-0.045,0.491,0.211,0.961,0.648,1.189c3.578,1.867,2.435,6.635,0.274,14.257c-2.197,7.751-4.931,17.398,0.331,24.785  c3.606,5.063,10.457,8.406,20.792,10.135c-1.571,0.682-3.015,1.468-4.38,2.22C26,69.028,23.529,70.388,20.69,70.388z M53.941,88.937  c-1.705,1.049-3.052,1.876-3.941,2.672c-0.889-0.796-2.236-1.623-3.942-2.672c-4.591-2.819-10.879-6.681-10.879-12.168  c0-6.709,7.456-10.219,14.82-10.219c7.366,0.002,14.821,3.512,14.821,10.219C64.82,82.256,58.532,86.117,53.941,88.937z   M69.967,69.586c3.023,1.663,5.879,3.234,9.342,3.234c2.832,0,5.711-1.069,8.864-3.322c-2.977,6.422-7.54,10.746-11.706,10.746  c-0.46,0-0.913-0.055-1.348-0.163c-4.114-1.023-5.595-3.707-7.31-6.814c-1.359-2.466-2.831-5.134-5.755-7.041  C65.045,66.878,67.535,68.248,69.967,69.586z M74.047,19.129c4.465-2.852,8.332-3.374,10.688-3.303  c-2.513,3.45-0.893,9.166,0.806,15.155c2.163,7.628,4.613,16.273,0.029,22.709c-3.008,4.223-8.71,7.132-17.273,8.806  c4.104-1.888,7.123-4.375,9.104-7.493c5.54-8.722,1.53-20.303-1.69-29.607c-0.788-2.276-1.47-4.298-1.979-6.064L74.047,19.129z   M70.998,11.235c-1.655,3.202,0.267,8.756,2.413,14.955c3.05,8.812,6.847,19.777,1.936,27.508  c-2.142,3.371-5.886,5.968-11.161,7.778c1.032-1.067,1.89-2.308,2.566-3.722c5.088-10.611-1.366-28.435-8.563-41.297  C63.241,12.411,68.072,11.41,70.998,11.235z M50,8.196c8.77,11.612,20.424,36.275,14.56,48.508  c-2.296,4.788-7.194,7.217-14.56,7.218c-7.365-0.001-12.264-2.43-14.56-7.219C29.576,44.47,41.231,19.808,50,8.196z M14.43,53.688  c-4.584-6.436-2.133-15.081,0.029-22.709c1.697-5.988,3.317-11.702,0.806-15.153c2.376-0.048,6.225,0.455,10.689,3.307l0.314,0.2  c-0.509,1.765-1.19,3.782-1.977,6.055C21.068,34.693,17.058,46.276,22.599,55c1.981,3.119,5,5.606,9.104,7.494  C23.139,60.82,17.438,57.911,14.43,53.688z M24.652,53.695c-4.912-7.732-1.114-18.699,1.938-27.512  c2.146-6.195,4.067-11.746,2.415-14.946c2.926,0.175,7.755,1.174,12.809,5.219c-7.199,12.861-13.653,30.686-8.565,41.299  c0.677,1.414,1.535,2.654,2.566,3.722C30.538,59.665,26.794,57.068,24.652,53.695z M37.947,66.225  c-2.923,1.907-4.396,4.575-5.756,7.041c-1.714,3.108-3.195,5.791-7.312,6.815c-0.435,0.108-0.887,0.163-1.346,0.163h0  c-4.164,0-8.726-4.324-11.705-10.744c3.153,2.252,6.032,3.32,8.862,3.32c3.463-0.001,6.319-1.571,9.342-3.234  C32.465,68.248,34.956,66.877,37.947,66.225z" fill="#B09C8B"/></svg>

